# xmcd CD database file
#
# Track frame offsets:
#	187
#	20287
#	35762
#	56065
#	77612
#	94295
#	109207
#	133387
#	150202
#	187317
#
# Disc length: 2752 seconds
#
# Revision: 0
# Processed by: cddbd v1.5.1PL0 Copyright (c) Steve Scherf et al.
# Submitted via: CDex 1.50beta8
#
DISCID=860abe0a
DTITLE=MAYA - 空中都市（マチュピチュ）
DYEAR=1989
DGENRE=Ethnic
TTITLE0=リャキ　ルナ
TTITLE1=チョリータ　コチャバンビーナ
TTITLE2=マチュ　ピチュ（空中都市）
TTITLE3=アルティプラーノ
TTITLE4=ディブロン
TTITLE5=コンドルは飛んで行く
TTITLE6=サリーリ
TTITLE7=セレナータ
TTITLE8=ワイニョ　アイマラ
TTITLE9=フォー　ビギニング（創世記）
EXTD=YEAR: 1989
EXTT0=
EXTT1=
EXTT2=
EXTT3=
EXTT4=
EXTT5=
EXTT6=
EXTT7=
EXTT8=
EXTT9=
PLAYORDER=
